<svg xmlns="http://www.w3.org/2000/svg" xmlns:xlink="http://www.w3.org/1999/xlink" width="500" zoomAndPan="magnify" viewBox="0 0 375 374.999991" height="500" preserveAspectRatio="xMidYMid meet" version="1.0"><defs><g/><clipPath id="2f6fd46aba"><path d="M 128 37.773438 L 246 37.773438 L 246 162 L 128 162 Z M 128 37.773438 " clip-rule="nonzero"/></clipPath><clipPath id="612d0c7017"><path d="M 120.917969 145 L 254.417969 145 L 254.417969 203 L 120.917969 203 Z M 120.917969 145 " clip-rule="nonzero"/></clipPath></defs><g clip-path="url(#2f6fd46aba)"><path fill="#467010" d="M 184.78125 89.359375 C 184.265625 41.953125 145.527344 45.035156 128.816406 37.878906 C 129.289062 58.257812 131.898438 69.164062 142.292969 77.464844 C 152.792969 85.871094 170.347656 88.40625 179.820312 98.46875 C 187.417969 106.550781 184.449219 109.707031 182.757812 119.214844 C 181.800781 124.648438 181.144531 130.234375 181.175781 136.253906 C 173.210938 126.375 162.886719 113.964844 151.6875 111.835938 C 164.285156 113.820312 169.464844 118.628906 176.515625 127.226562 C 174.898438 119.625 171.265625 112.980469 162.484375 108.3125 C 155.546875 104.601562 141.957031 104.089844 133.398438 115.179688 C 148.085938 115.253906 163.253906 141.730469 173.832031 133.796875 L 181.398438 142.722656 L 181.4375 142.722656 C 181.695312 145.917969 182.132812 149.296875 182.832031 152.820312 C 186.503906 154.511719 190.101562 156.199219 193.589844 157.632812 C 196.492188 158.84375 199.574219 160.019531 202.769531 161.042969 C 199.246094 157.007812 196.492188 152.597656 194.394531 147.898438 L 200.238281 138.496094 C 210.226562 149.917969 229.355469 122.632812 245.035156 124.136719 C 237.324219 111.722656 223.113281 110.808594 215.476562 113.929688 C 212.683594 115.066406 210.300781 116.425781 208.3125 117.972656 C 210.738281 111.578125 212.976562 104.054688 217.863281 101.148438 C 208.203125 97.292969 199.6875 102.726562 196.636719 107.71875 C 192.816406 114.035156 193 119.652344 194.835938 125.125 C 196.011719 119.105469 198.285156 112.382812 204.898438 105.917969 C 198.214844 116.679688 197.996094 123.660156 198.988281 129.054688 C 207.25 120.867188 213.015625 119.46875 226.378906 118.738281 C 213.601562 119.875 201.628906 132.179688 192.226562 142.3125 C 189.730469 134.859375 188.664062 126.855469 188.589844 118.664062 C 188.367188 94.242188 204.160156 97.363281 219.292969 83.296875 C 226.96875 76.132812 229.5 68.273438 231.195312 54.25 C 219.257812 61.519531 192.929688 64.824219 189.367188 97.359375 C 198.363281 84.839844 207.984375 86.195312 220.761719 69.339844 C 212.0625 85.425781 195.535156 91.011719 189.035156 102.464844 L 187.164062 104.816406 C 185.144531 81.425781 157.898438 78.007812 145.558594 53.363281 C 162.121094 74.601562 174.203125 71.953125 184.78125 89.359375 Z M 184.78125 89.359375 " fill-opacity="1" fill-rule="evenodd"/></g><g clip-path="url(#612d0c7017)"><path fill="#513a2a" d="M 182.648438 187.742188 C 206.261719 197.511719 229.878906 215.210938 252.679688 187.78125 C 253.59375 183.410156 254.074219 178.859375 254.074219 174.230469 C 254.074219 166.296875 252.679688 158.695312 250.144531 151.683594 C 246.070312 169.199219 224.660156 174.046875 192.339844 160.679688 C 168.726562 150.910156 145.117188 133.210938 122.3125 160.640625 C 121.394531 165.011719 120.917969 169.566406 120.917969 174.230469 C 120.917969 182.125 122.316406 189.726562 124.847656 196.738281 C 128.925781 179.222656 150.332031 174.414062 182.648438 187.742188 Z M 182.648438 187.742188 " fill-opacity="1" fill-rule="evenodd"/></g><path fill="#513a2a" d="M 246 205.992188 C 226.167969 228.394531 198.296875 210.4375 181.546875 202.355469 C 156.210938 189.574219 129 190.933594 131.609375 210.359375 C 137.703125 219.761719 146.113281 227.546875 155.992188 232.871094 C 152.980469 221.011719 162.746094 221.15625 174.390625 226.074219 C 185.589844 230.8125 198.59375 239.808594 208.066406 237.535156 C 208.769531 237.3125 209.464844 237.054688 210.160156 236.832031 C 225.507812 231.261719 238.25 220.207031 246 205.992188 Z M 246 205.992188 " fill-opacity="1" fill-rule="evenodd"/><g fill="#000000" fill-opacity="1"><g transform="translate(64.711899, 302.413941)"><g><path d="M 20.421875 0.6875 C 16.847656 0.6875 13.640625 -0.0664062 10.796875 -1.578125 C 7.953125 -3.085938 5.71875 -5.191406 4.09375 -7.890625 C 2.46875 -10.585938 1.65625 -13.644531 1.65625 -17.0625 C 1.65625 -20.46875 2.46875 -23.519531 4.09375 -26.21875 C 5.71875 -28.914062 7.953125 -31.019531 10.796875 -32.53125 C 13.640625 -34.039062 16.847656 -34.796875 20.421875 -34.796875 C 23.535156 -34.796875 26.34375 -34.242188 28.84375 -33.140625 C 31.351562 -32.035156 33.4375 -30.441406 35.09375 -28.359375 L 28.953125 -22.8125 C 26.742188 -25.46875 24.0625 -26.796875 20.90625 -26.796875 C 19.050781 -26.796875 17.398438 -26.390625 15.953125 -25.578125 C 14.515625 -24.773438 13.394531 -23.632812 12.59375 -22.15625 C 11.800781 -20.675781 11.40625 -18.976562 11.40625 -17.0625 C 11.40625 -15.144531 11.800781 -13.445312 12.59375 -11.96875 C 13.394531 -10.488281 14.515625 -9.34375 15.953125 -8.53125 C 17.398438 -7.71875 19.050781 -7.3125 20.90625 -7.3125 C 24.0625 -7.3125 26.742188 -8.644531 28.953125 -11.3125 L 35.09375 -5.75 C 33.4375 -3.664062 31.351562 -2.070312 28.84375 -0.96875 C 26.34375 0.132812 23.535156 0.6875 20.421875 0.6875 Z M 20.421875 0.6875 "/></g></g></g><g fill="#000000" fill-opacity="1"><g transform="translate(102.13304, 302.413941)"><g><path d="M 35.875 -34.109375 L 35.875 0 L 26.21875 0 L 26.21875 -13.296875 L 13.0625 -13.296875 L 13.0625 0 L 3.40625 0 L 3.40625 -34.109375 L 13.0625 -34.109375 L 13.0625 -21.296875 L 26.21875 -21.296875 L 26.21875 -34.109375 Z M 35.875 -34.109375 "/></g></g></g><g fill="#000000" fill-opacity="1"><g transform="translate(142.867451, 302.413941)"><g><path d="M 3.40625 -34.109375 L 13.0625 -34.109375 L 13.0625 0 L 3.40625 0 Z M 3.40625 -34.109375 "/></g></g></g><g fill="#000000" fill-opacity="1"><g transform="translate(160.847495, 302.413941)"><g><path d="M 29.625 -17.78125 C 31.570312 -17.101562 33.097656 -16.039062 34.203125 -14.59375 C 35.316406 -13.144531 35.875 -11.398438 35.875 -9.359375 C 35.875 -6.367188 34.671875 -4.0625 32.265625 -2.4375 C 29.859375 -0.8125 26.378906 0 21.828125 0 L 3.40625 0 L 3.40625 -34.109375 L 20.859375 -34.109375 C 25.210938 -34.109375 28.523438 -33.304688 30.796875 -31.703125 C 33.078125 -30.097656 34.21875 -27.929688 34.21875 -25.203125 C 34.21875 -23.578125 33.816406 -22.117188 33.015625 -20.828125 C 32.222656 -19.546875 31.09375 -18.53125 29.625 -17.78125 Z M 12.96875 -27.140625 L 12.96875 -20.5625 L 19.59375 -20.5625 C 22.84375 -20.5625 24.46875 -21.664062 24.46875 -23.875 C 24.46875 -26.050781 22.84375 -27.140625 19.59375 -27.140625 Z M 21.046875 -6.96875 C 24.429688 -6.96875 26.125 -8.117188 26.125 -10.421875 C 26.125 -12.734375 24.429688 -13.890625 21.046875 -13.890625 L 12.96875 -13.890625 L 12.96875 -6.96875 Z M 21.046875 -6.96875 "/></g></g></g><g fill="#000000" fill-opacity="1"><g transform="translate(199.779089, 302.413941)"><g><path d="M 26.265625 -6.625 L 11.84375 -6.625 L 9.15625 0 L -0.6875 0 L 14.375 -34.109375 L 23.875 -34.109375 L 38.984375 0 L 28.953125 0 Z M 23.4375 -13.75 L 19.0625 -24.65625 L 14.671875 -13.75 Z M 23.4375 -13.75 "/></g></g></g><g fill="#000000" fill-opacity="1"><g transform="translate(239.53901, 302.413941)"><g><path d="M 10.671875 -26.46875 L 0.1875 -26.46875 L 0.1875 -34.109375 L 30.75 -34.109375 L 30.75 -26.46875 L 20.328125 -26.46875 L 20.328125 0 L 10.671875 0 Z M 10.671875 -26.46875 "/></g></g></g><g fill="#000000" fill-opacity="1"><g transform="translate(271.941524, 302.413941)"><g><path d="M 26.265625 -6.625 L 11.84375 -6.625 L 9.15625 0 L -0.6875 0 L 14.375 -34.109375 L 23.875 -34.109375 L 38.984375 0 L 28.953125 0 Z M 23.4375 -13.75 L 19.0625 -24.65625 L 14.671875 -13.75 Z M 20.90625 -44.296875 L 30.15625 -44.296875 L 21 -36.890625 L 14.375 -36.890625 Z M 20.90625 -44.296875 "/></g></g></g><g fill="#000000" fill-opacity="1"><g transform="translate(98.75233, 332.177101)"><g><path d="M 3.375 -12.5 L 3.375 -7.828125 L 8.46875 -7.828125 L 8.46875 -6.3125 L 3.375 -6.3125 L 3.375 -1.5 L 9.0625 -1.5 L 9.0625 0 L 1.546875 0 L 1.546875 -14 L 9.0625 -14 L 9.0625 -12.5 Z M 3.375 -12.5 "/></g></g></g><g fill="#000000" fill-opacity="1"><g transform="translate(112.502738, 332.177101)"><g><path d="M 0.859375 -7 C 0.859375 -8.363281 1.164062 -9.585938 1.78125 -10.671875 C 2.394531 -11.765625 3.234375 -12.617188 4.296875 -13.234375 C 5.359375 -13.859375 6.539062 -14.171875 7.84375 -14.171875 C 9.363281 -14.171875 10.691406 -13.800781 11.828125 -13.0625 C 12.972656 -12.320312 13.804688 -11.28125 14.328125 -9.9375 L 12.140625 -9.9375 C 11.753906 -10.769531 11.195312 -11.414062 10.46875 -11.875 C 9.738281 -12.332031 8.863281 -12.5625 7.84375 -12.5625 C 6.863281 -12.5625 5.984375 -12.332031 5.203125 -11.875 C 4.429688 -11.414062 3.828125 -10.769531 3.390625 -9.9375 C 2.953125 -9.101562 2.734375 -8.125 2.734375 -7 C 2.734375 -5.894531 2.953125 -4.921875 3.390625 -4.078125 C 3.828125 -3.242188 4.429688 -2.597656 5.203125 -2.140625 C 5.984375 -1.691406 6.863281 -1.46875 7.84375 -1.46875 C 8.863281 -1.46875 9.738281 -1.691406 10.46875 -2.140625 C 11.195312 -2.585938 11.753906 -3.234375 12.140625 -4.078125 L 14.328125 -4.078125 C 13.804688 -2.734375 12.972656 -1.695312 11.828125 -0.96875 C 10.691406 -0.238281 9.363281 0.125 7.84375 0.125 C 6.539062 0.125 5.359375 -0.175781 4.296875 -0.78125 C 3.234375 -1.394531 2.394531 -2.242188 1.78125 -3.328125 C 1.164062 -4.410156 0.859375 -5.632812 0.859375 -7 Z M 0.859375 -7 "/></g></g></g><g fill="#000000" fill-opacity="1"><g transform="translate(131.443406, 332.177101)"><g><path d="M 7.890625 0.140625 C 6.585938 0.140625 5.398438 -0.160156 4.328125 -0.765625 C 3.265625 -1.378906 2.421875 -2.226562 1.796875 -3.3125 C 1.171875 -4.40625 0.859375 -5.632812 0.859375 -7 C 0.859375 -8.363281 1.171875 -9.585938 1.796875 -10.671875 C 2.421875 -11.765625 3.265625 -12.613281 4.328125 -13.21875 C 5.398438 -13.832031 6.585938 -14.140625 7.890625 -14.140625 C 9.191406 -14.140625 10.378906 -13.832031 11.453125 -13.21875 C 12.523438 -12.613281 13.367188 -11.769531 13.984375 -10.6875 C 14.597656 -9.601562 14.90625 -8.375 14.90625 -7 C 14.90625 -5.625 14.597656 -4.394531 13.984375 -3.3125 C 13.367188 -2.226562 12.523438 -1.378906 11.453125 -0.765625 C 10.378906 -0.160156 9.191406 0.140625 7.890625 0.140625 Z M 7.890625 -1.4375 C 8.859375 -1.4375 9.734375 -1.664062 10.515625 -2.125 C 11.304688 -2.582031 11.925781 -3.234375 12.375 -4.078125 C 12.820312 -4.921875 13.046875 -5.894531 13.046875 -7 C 13.046875 -8.125 12.820312 -9.101562 12.375 -9.9375 C 11.925781 -10.769531 11.3125 -11.414062 10.53125 -11.875 C 9.757812 -12.332031 8.878906 -12.5625 7.890625 -12.5625 C 6.898438 -12.5625 6.015625 -12.332031 5.234375 -11.875 C 4.460938 -11.414062 3.851562 -10.769531 3.40625 -9.9375 C 2.957031 -9.101562 2.734375 -8.125 2.734375 -7 C 2.734375 -5.894531 2.957031 -4.921875 3.40625 -4.078125 C 3.851562 -3.234375 4.46875 -2.582031 5.25 -2.125 C 6.03125 -1.664062 6.910156 -1.4375 7.890625 -1.4375 Z M 7.890625 -1.4375 "/></g></g></g><g fill="#000000" fill-opacity="1"><g transform="translate(150.664631, 332.177101)"><g><path d="M 9.8125 -3.109375 L 3.71875 -3.109375 L 2.59375 0 L 0.65625 0 L 5.71875 -13.90625 L 7.828125 -13.90625 L 12.859375 0 L 10.9375 0 Z M 9.28125 -4.59375 L 6.765625 -11.65625 L 4.234375 -4.59375 Z M 9.28125 -4.59375 "/></g></g></g><g fill="#000000" fill-opacity="1"><g transform="translate(167.641418, 332.177101)"><g><path d="M 0.859375 -7 C 0.859375 -8.363281 1.164062 -9.585938 1.78125 -10.671875 C 2.394531 -11.765625 3.234375 -12.617188 4.296875 -13.234375 C 5.359375 -13.859375 6.539062 -14.171875 7.84375 -14.171875 C 9.363281 -14.171875 10.691406 -13.800781 11.828125 -13.0625 C 12.972656 -12.320312 13.804688 -11.28125 14.328125 -9.9375 L 12.140625 -9.9375 C 11.753906 -10.769531 11.195312 -11.414062 10.46875 -11.875 C 9.738281 -12.332031 8.863281 -12.5625 7.84375 -12.5625 C 6.863281 -12.5625 5.984375 -12.332031 5.203125 -11.875 C 4.429688 -11.414062 3.828125 -10.769531 3.390625 -9.9375 C 2.953125 -9.101562 2.734375 -8.125 2.734375 -7 C 2.734375 -5.894531 2.953125 -4.921875 3.390625 -4.078125 C 3.828125 -3.242188 4.429688 -2.597656 5.203125 -2.140625 C 5.984375 -1.691406 6.863281 -1.46875 7.84375 -1.46875 C 8.863281 -1.46875 9.738281 -1.691406 10.46875 -2.140625 C 11.195312 -2.585938 11.753906 -3.234375 12.140625 -4.078125 L 14.328125 -4.078125 C 13.804688 -2.734375 12.972656 -1.695312 11.828125 -0.96875 C 10.691406 -0.238281 9.363281 0.125 7.84375 0.125 C 6.539062 0.125 5.359375 -0.175781 4.296875 -0.78125 C 3.234375 -1.394531 2.394531 -2.242188 1.78125 -3.328125 C 1.164062 -4.410156 0.859375 -5.632812 0.859375 -7 Z M 0.859375 -7 "/></g></g></g><g fill="#000000" fill-opacity="1"><g transform="translate(186.582091, 332.177101)"><g><path d="M 0.859375 -7 C 0.859375 -8.363281 1.164062 -9.585938 1.78125 -10.671875 C 2.394531 -11.765625 3.234375 -12.617188 4.296875 -13.234375 C 5.359375 -13.859375 6.539062 -14.171875 7.84375 -14.171875 C 9.363281 -14.171875 10.691406 -13.800781 11.828125 -13.0625 C 12.972656 -12.320312 13.804688 -11.28125 14.328125 -9.9375 L 12.140625 -9.9375 C 11.753906 -10.769531 11.195312 -11.414062 10.46875 -11.875 C 9.738281 -12.332031 8.863281 -12.5625 7.84375 -12.5625 C 6.863281 -12.5625 5.984375 -12.332031 5.203125 -11.875 C 4.429688 -11.414062 3.828125 -10.769531 3.390625 -9.9375 C 2.953125 -9.101562 2.734375 -8.125 2.734375 -7 C 2.734375 -5.894531 2.953125 -4.921875 3.390625 -4.078125 C 3.828125 -3.242188 4.429688 -2.597656 5.203125 -2.140625 C 5.984375 -1.691406 6.863281 -1.46875 7.84375 -1.46875 C 8.863281 -1.46875 9.738281 -1.691406 10.46875 -2.140625 C 11.195312 -2.585938 11.753906 -3.234375 12.140625 -4.078125 L 14.328125 -4.078125 C 13.804688 -2.734375 12.972656 -1.695312 11.828125 -0.96875 C 10.691406 -0.238281 9.363281 0.125 7.84375 0.125 C 6.539062 0.125 5.359375 -0.175781 4.296875 -0.78125 C 3.234375 -1.394531 2.394531 -2.242188 1.78125 -3.328125 C 1.164062 -4.410156 0.859375 -5.632812 0.859375 -7 Z M 0.859375 -7 "/></g></g></g><g fill="#000000" fill-opacity="1"><g transform="translate(205.522764, 332.177101)"><g><path d="M 3.375 -13.984375 L 3.375 0 L 1.546875 0 L 1.546875 -13.984375 Z M 3.375 -13.984375 "/></g></g></g><g fill="#000000" fill-opacity="1"><g transform="translate(213.92261, 332.177101)"><g><path d="M 7.890625 0.140625 C 6.585938 0.140625 5.398438 -0.160156 4.328125 -0.765625 C 3.265625 -1.378906 2.421875 -2.226562 1.796875 -3.3125 C 1.171875 -4.40625 0.859375 -5.632812 0.859375 -7 C 0.859375 -8.363281 1.171875 -9.585938 1.796875 -10.671875 C 2.421875 -11.765625 3.265625 -12.613281 4.328125 -13.21875 C 5.398438 -13.832031 6.585938 -14.140625 7.890625 -14.140625 C 9.191406 -14.140625 10.378906 -13.832031 11.453125 -13.21875 C 12.523438 -12.613281 13.367188 -11.769531 13.984375 -10.6875 C 14.597656 -9.601562 14.90625 -8.375 14.90625 -7 C 14.90625 -5.625 14.597656 -4.394531 13.984375 -3.3125 C 13.367188 -2.226562 12.523438 -1.378906 11.453125 -0.765625 C 10.378906 -0.160156 9.191406 0.140625 7.890625 0.140625 Z M 7.890625 -1.4375 C 8.859375 -1.4375 9.734375 -1.664062 10.515625 -2.125 C 11.304688 -2.582031 11.925781 -3.234375 12.375 -4.078125 C 12.820312 -4.921875 13.046875 -5.894531 13.046875 -7 C 13.046875 -8.125 12.820312 -9.101562 12.375 -9.9375 C 11.925781 -10.769531 11.3125 -11.414062 10.53125 -11.875 C 9.757812 -12.332031 8.878906 -12.5625 7.890625 -12.5625 C 6.898438 -12.5625 6.015625 -12.332031 5.234375 -11.875 C 4.460938 -11.414062 3.851562 -10.769531 3.40625 -9.9375 C 2.957031 -9.101562 2.734375 -8.125 2.734375 -7 C 2.734375 -5.894531 2.957031 -4.921875 3.40625 -4.078125 C 3.851562 -3.234375 4.46875 -2.582031 5.25 -2.125 C 6.03125 -1.664062 6.910156 -1.4375 7.890625 -1.4375 Z M 7.890625 -1.4375 "/></g></g></g><g fill="#000000" fill-opacity="1"><g transform="translate(233.14384, 332.177101)"><g><path d="M 12.53125 0 L 10.71875 0 L 3.375 -11.140625 L 3.375 0 L 1.546875 0 L 1.546875 -14 L 3.375 -14 L 10.71875 -2.890625 L 10.71875 -14 L 12.53125 -14 Z M 12.53125 0 "/></g></g></g><g fill="#000000" fill-opacity="1"><g transform="translate(250.701782, 332.177101)"><g><path d="M 3.375 -12.5 L 3.375 -7.828125 L 8.46875 -7.828125 L 8.46875 -6.3125 L 3.375 -6.3125 L 3.375 -1.5 L 9.0625 -1.5 L 9.0625 0 L 1.546875 0 L 1.546875 -14 L 9.0625 -14 L 9.0625 -12.5 Z M 3.375 -12.5 "/></g></g></g><g fill="#000000" fill-opacity="1"><g transform="translate(264.452194, 332.177101)"><g><path d="M 5.984375 0.140625 C 5.054688 0.140625 4.226562 -0.0195312 3.5 -0.34375 C 2.769531 -0.675781 2.195312 -1.132812 1.78125 -1.71875 C 1.363281 -2.300781 1.148438 -2.972656 1.140625 -3.734375 L 3.09375 -3.734375 C 3.15625 -3.078125 3.421875 -2.523438 3.890625 -2.078125 C 4.367188 -1.628906 5.066406 -1.40625 5.984375 -1.40625 C 6.847656 -1.40625 7.53125 -1.617188 8.03125 -2.046875 C 8.53125 -2.484375 8.78125 -3.046875 8.78125 -3.734375 C 8.78125 -4.265625 8.632812 -4.695312 8.34375 -5.03125 C 8.050781 -5.363281 7.679688 -5.617188 7.234375 -5.796875 C 6.796875 -5.972656 6.203125 -6.160156 5.453125 -6.359375 C 4.535156 -6.597656 3.796875 -6.835938 3.234375 -7.078125 C 2.679688 -7.316406 2.207031 -7.691406 1.8125 -8.203125 C 1.414062 -8.722656 1.21875 -9.421875 1.21875 -10.296875 C 1.21875 -11.054688 1.410156 -11.726562 1.796875 -12.3125 C 2.191406 -12.90625 2.738281 -13.363281 3.4375 -13.6875 C 4.144531 -14.007812 4.953125 -14.171875 5.859375 -14.171875 C 7.171875 -14.171875 8.242188 -13.84375 9.078125 -13.1875 C 9.910156 -12.53125 10.382812 -11.660156 10.5 -10.578125 L 8.484375 -10.578125 C 8.421875 -11.109375 8.140625 -11.578125 7.640625 -11.984375 C 7.148438 -12.390625 6.492188 -12.59375 5.671875 -12.59375 C 4.910156 -12.59375 4.289062 -12.394531 3.8125 -12 C 3.332031 -11.613281 3.09375 -11.066406 3.09375 -10.359375 C 3.09375 -9.847656 3.234375 -9.429688 3.515625 -9.109375 C 3.804688 -8.785156 4.160156 -8.539062 4.578125 -8.375 C 5.003906 -8.207031 5.597656 -8.015625 6.359375 -7.796875 C 7.285156 -7.546875 8.023438 -7.296875 8.578125 -7.046875 C 9.140625 -6.804688 9.625 -6.425781 10.03125 -5.90625 C 10.4375 -5.394531 10.640625 -4.695312 10.640625 -3.8125 C 10.640625 -3.125 10.457031 -2.476562 10.09375 -1.875 C 9.726562 -1.28125 9.191406 -0.796875 8.484375 -0.421875 C 7.773438 -0.046875 6.941406 0.140625 5.984375 0.140625 Z M 5.984375 0.140625 "/></g></g></g></svg>